<svg xmlns="http://www.w3.org/2000/svg" xmlns:xlink="http://www.w3.org/1999/xlink" width="500" zoomAndPan="magnify" viewBox="0 0 375 374.999991" height="500" preserveAspectRatio="xMidYMid meet" version="1.0"><defs><g/></defs><g fill="#d01110" fill-opacity="1"><g transform="translate(62.230443, 120.334113)"><g><path d="M 7.71875 -80.078125 C 9.789062 -82.148438 12.257812 -83.1875 15.125 -83.1875 C 18 -83.1875 20.472656 -82.148438 22.546875 -80.078125 C 24.617188 -78.003906 25.65625 -75.53125 25.65625 -72.65625 C 25.65625 -69.78125 24.617188 -67.304688 22.546875 -65.234375 C 20.472656 -63.171875 18 -62.140625 15.125 -62.140625 C 12.257812 -62.140625 9.789062 -63.171875 7.71875 -65.234375 C 5.644531 -67.304688 4.609375 -69.78125 4.609375 -72.65625 C 4.609375 -75.53125 5.644531 -78.003906 7.71875 -80.078125 Z M 6.015625 -51.40625 L 6.015625 0 L 23.75 0 L 23.75 -51.40625 Z M 6.015625 -51.40625 "/></g></g></g><g fill="#d01110" fill-opacity="1"><g transform="translate(83.97132, 120.334113)"><g><path d="M 0.796875 -66.140625 L 0.796875 -82.6875 L 58.921875 -82.6875 L 58.921875 -66.140625 L 39.28125 -66.140625 L 39.28125 0 L 20.4375 0 L 20.4375 -66.140625 Z M 0.796875 -66.140625 "/></g></g></g><g fill="#d01110" fill-opacity="1"><g transform="translate(135.170916, 120.334113)"><g><path d="M 22.75 -51.40625 L 22.75 -26.953125 C 22.75 -21.878906 23.515625 -18.269531 25.046875 -16.125 C 26.585938 -13.988281 29.195312 -12.921875 32.875 -12.921875 C 36.550781 -12.921875 39.15625 -13.988281 40.6875 -16.125 C 42.226562 -18.269531 43 -21.878906 43 -26.953125 L 43 -51.40625 L 60.734375 -51.40625 L 60.734375 -22.65625 C 60.734375 -14.101562 58.507812 -7.9375 54.0625 -4.15625 C 49.625 -0.382812 42.5625 1.5 32.875 1.5 C 23.1875 1.5 16.117188 -0.382812 11.671875 -4.15625 C 7.234375 -7.9375 5.015625 -14.101562 5.015625 -22.65625 L 5.015625 -51.40625 Z M 22.75 -51.40625 "/></g></g></g><g fill="#d01110" fill-opacity="1"><g transform="translate(192.382508, 120.334113)"><g><path d="M 58.921875 -45 C 63.734375 -39.71875 66.140625 -33.269531 66.140625 -25.65625 C 66.140625 -18.039062 63.734375 -11.609375 58.921875 -6.359375 C 54.117188 -1.117188 48.007812 1.5 40.59375 1.5 C 33.769531 1.5 28.15625 -0.9375 23.75 -5.8125 L 23.546875 -5.8125 L 23.546875 0 L 6.015625 0 L 6.015625 -86.1875 L 23.75 -86.1875 L 23.75 -46.5 C 28.15625 -50.78125 33.769531 -52.921875 40.59375 -52.921875 C 48.007812 -52.921875 54.117188 -50.28125 58.921875 -45 Z M 43.984375 -16.984375 C 46.191406 -19.222656 47.296875 -22.113281 47.296875 -25.65625 C 47.296875 -29.195312 46.144531 -32.101562 43.84375 -34.375 C 41.539062 -36.644531 38.6875 -37.78125 35.28125 -37.78125 C 31.9375 -37.78125 29.109375 -36.644531 26.796875 -34.375 C 24.492188 -32.101562 23.34375 -29.195312 23.34375 -25.65625 C 23.34375 -22.175781 24.460938 -19.300781 26.703125 -17.03125 C 28.941406 -14.757812 31.800781 -13.625 35.28125 -13.625 C 38.882812 -13.625 41.785156 -14.742188 43.984375 -16.984375 Z M 43.984375 -16.984375 "/></g></g></g><g fill="#d01110" fill-opacity="1"><g transform="translate(252.299488, 120.334113)"><g><path d="M 58.03125 -23.25 L 20.75 -23.25 C 20.75 -19.644531 21.914062 -16.972656 24.25 -15.234375 C 26.59375 -13.492188 29.132812 -12.625 31.875 -12.625 C 34.738281 -12.625 37.003906 -13.007812 38.671875 -13.78125 C 40.347656 -14.550781 42.253906 -16.070312 44.390625 -18.34375 L 57.21875 -11.921875 C 51.875 -2.972656 42.988281 1.5 30.5625 1.5 C 22.8125 1.5 16.164062 -1.15625 10.625 -6.46875 C 5.082031 -11.78125 2.3125 -18.175781 2.3125 -25.65625 C 2.3125 -33.132812 5.082031 -39.546875 10.625 -44.890625 C 16.164062 -50.242188 22.8125 -52.921875 30.5625 -52.921875 C 38.71875 -52.921875 45.347656 -50.5625 50.453125 -45.84375 C 55.566406 -41.132812 58.125 -34.40625 58.125 -25.65625 C 58.125 -24.457031 58.09375 -23.65625 58.03125 -23.25 Z M 21.25 -33.078125 L 40.78125 -33.078125 C 40.382812 -35.742188 39.332031 -37.796875 37.625 -39.234375 C 35.925781 -40.671875 33.738281 -41.390625 31.0625 -41.390625 C 28.125 -41.390625 25.785156 -40.617188 24.046875 -39.078125 C 22.316406 -37.546875 21.382812 -35.546875 21.25 -33.078125 Z M 21.25 -33.078125 "/></g></g></g><path stroke-linecap="butt" transform="matrix(1.403263, 0, 0, 1.403263, 6.150253, 173.467371)" fill="none" stroke-linejoin="miter" d="M -0.00129358 5.000492 L 84.433623 5.000492 " stroke="#d01110" stroke-width="10" stroke-opacity="1" stroke-miterlimit="4"/><path stroke-linecap="butt" transform="matrix(0, 1.403263, -1.403263, 0, 20.175686, 67.579611)" fill="none" stroke-linejoin="miter" d="M -0.00105879 4.999441 L 82.463004 4.999441 " stroke="#d01110" stroke-width="10" stroke-opacity="1" stroke-miterlimit="4"/><path stroke-linecap="butt" transform="matrix(-1.403263, 0, 0, -1.403263, 367.104736, 21.631632)" fill="none" stroke-linejoin="miter" d="M -0.000521896 4.998668 L 84.434395 4.998668 " stroke="#d01110" stroke-width="10" stroke-opacity="1" stroke-miterlimit="4"/><path stroke-linecap="butt" transform="matrix(0, -1.403263, 1.403263, 0, 353.079298, 127.519386)" fill="none" stroke-linejoin="miter" d="M -0.00010349 4.998673 L 82.46396 4.998673 " stroke="#d01110" stroke-width="10" stroke-opacity="1" stroke-miterlimit="4"/></svg>