<svg xmlns="http://www.w3.org/2000/svg" xmlns:xlink="http://www.w3.org/1999/xlink" width="500" zoomAndPan="magnify" viewBox="0 0 375 374.999991" height="500" preserveAspectRatio="xMidYMid meet" version="1.0"><path fill="#d01110" d="M 69.949219 40.257812 C 72.019531 38.1875 74.488281 37.148438 77.355469 37.148438 C 80.230469 37.148438 82.703125 38.1875 84.777344 40.257812 C 86.847656 42.332031 87.886719 44.804688 87.886719 47.679688 C 87.886719 50.554688 86.847656 53.03125 84.777344 55.101562 C 82.703125 57.164062 80.230469 58.195312 77.355469 58.195312 C 74.488281 58.195312 72.019531 57.164062 69.949219 55.101562 C 67.875 53.03125 66.839844 50.554688 66.839844 47.679688 C 66.839844 44.804688 67.875 42.332031 69.949219 40.257812 Z M 68.246094 68.929688 L 68.246094 120.335938 L 85.980469 120.335938 L 85.980469 68.929688 Z M 68.246094 68.929688 " fill-opacity="1" fill-rule="nonzero"/><path fill="#d01110" d="M 84.769531 54.195312 L 84.769531 37.648438 L 142.894531 37.648438 L 142.894531 54.195312 L 123.253906 54.195312 L 123.253906 120.335938 L 104.410156 120.335938 L 104.410156 54.195312 Z M 84.769531 54.195312 " fill-opacity="1" fill-rule="nonzero"/><path fill="#d01110" d="M 157.921875 68.929688 L 157.921875 93.382812 C 157.921875 98.457031 158.6875 102.066406 160.21875 104.210938 C 161.757812 106.347656 164.367188 107.414062 168.046875 107.414062 C 171.722656 107.414062 174.328125 106.347656 175.859375 104.210938 C 177.398438 102.066406 178.171875 98.457031 178.171875 93.382812 L 178.171875 68.929688 L 195.90625 68.929688 L 195.90625 97.679688 C 195.90625 106.234375 193.679688 112.398438 189.234375 116.179688 C 184.796875 119.953125 177.734375 121.835938 168.046875 121.835938 C 158.359375 121.835938 151.289062 119.953125 146.84375 116.179688 C 142.40625 112.398438 140.1875 106.234375 140.1875 97.679688 L 140.1875 68.929688 Z M 157.921875 68.929688 " fill-opacity="1" fill-rule="nonzero"/><path fill="#d01110" d="M 251.304688 75.335938 C 256.117188 80.617188 258.523438 87.066406 258.523438 94.679688 C 258.523438 102.296875 256.117188 108.726562 251.304688 113.976562 C 246.5 119.21875 240.390625 121.835938 232.976562 121.835938 C 226.152344 121.835938 220.539062 119.398438 216.132812 114.523438 L 215.929688 114.523438 L 215.929688 120.335938 L 198.398438 120.335938 L 198.398438 34.148438 L 216.132812 34.148438 L 216.132812 73.835938 C 220.539062 69.554688 226.152344 67.414062 232.976562 67.414062 C 240.390625 67.414062 246.5 70.054688 251.304688 75.335938 Z M 236.367188 103.351562 C 238.574219 101.113281 239.679688 98.222656 239.679688 94.679688 C 239.679688 91.140625 238.527344 88.234375 236.226562 85.960938 C 233.921875 83.691406 231.070312 82.554688 227.664062 82.554688 C 224.320312 82.554688 221.492188 83.691406 219.179688 85.960938 C 216.875 88.234375 215.726562 91.140625 215.726562 94.679688 C 215.726562 98.160156 216.84375 101.035156 219.085938 103.304688 C 221.324219 105.578125 224.183594 106.710938 227.664062 106.710938 C 231.265625 106.710938 234.167969 105.59375 236.367188 103.351562 Z M 236.367188 103.351562 " fill-opacity="1" fill-rule="nonzero"/><path fill="#d01110" d="M 310.332031 97.085938 L 273.050781 97.085938 C 273.050781 100.691406 274.214844 103.363281 276.550781 105.101562 C 278.894531 106.84375 281.433594 107.710938 284.175781 107.710938 C 287.039062 107.710938 289.304688 107.328125 290.972656 106.554688 C 292.648438 105.785156 294.554688 104.265625 296.691406 101.992188 L 309.519531 108.414062 C 304.175781 117.363281 295.289062 121.835938 282.863281 121.835938 C 275.113281 121.835938 268.464844 119.179688 262.925781 113.867188 C 257.382812 108.554688 254.613281 102.160156 254.613281 94.679688 C 254.613281 87.203125 257.382812 80.789062 262.925781 75.445312 C 268.464844 70.09375 275.113281 67.414062 282.863281 67.414062 C 291.019531 67.414062 297.648438 69.773438 302.753906 74.492188 C 307.867188 79.203125 310.425781 85.929688 310.425781 94.679688 C 310.425781 95.878906 310.394531 96.679688 310.332031 97.085938 Z M 273.550781 87.257812 L 293.082031 87.257812 C 292.683594 84.59375 291.632812 82.539062 289.925781 81.101562 C 288.226562 79.664062 286.039062 78.945312 283.363281 78.945312 C 280.425781 78.945312 278.085938 79.71875 276.347656 81.257812 C 274.617188 82.789062 273.683594 84.789062 273.550781 87.257812 Z M 273.550781 87.257812 " fill-opacity="1" fill-rule="nonzero"/><path stroke-linecap="butt" transform="matrix(1.40326, 0, 0, 1.40326, 6.150004, 173.466975)" fill="none" stroke-linejoin="miter" d="M -0.0011164 5.000784 L 84.433972 5.000784 " stroke="#d01110" stroke-width="10" stroke-opacity="1" stroke-miterlimit="4"/><path stroke-linecap="butt" transform="matrix(0, 1.40326, -1.40326, 0, 20.176005, 67.579997)" fill="none" stroke-linejoin="miter" d="M -0.00133415 4.999679 L 82.462897 4.999679 " stroke="#d01110" stroke-width="10" stroke-opacity="1" stroke-miterlimit="4"/><path stroke-linecap="butt" transform="matrix(-1.40326, 0, 0, -1.40326, 367.105, 21.631998)" fill="none" stroke-linejoin="miter" d="M -0.000333763 4.998939 L 84.434755 4.998939 " stroke="#d01110" stroke-width="10" stroke-opacity="1" stroke-miterlimit="4"/><path stroke-linecap="butt" transform="matrix(0, -1.40326, 1.40326, 0, 353.079973, 127.519986)" fill="none" stroke-linejoin="miter" d="M 0.000324085 4.998203 L 82.464555 4.998203 " stroke="#d01110" stroke-width="10" stroke-opacity="1" stroke-miterlimit="4"/></svg>